<svg xmlns="http://www.w3.org/2000/svg" viewBox="0 0 340 430" width="340" height="430">
  <rect width="340" height="430" fill="#ffffff"/>

  <!-- title -->
  <text x="170" y="14" text-anchor="middle" font-family="sans-serif" font-size="9" font-weight="bold" fill="#222">Response distribution across Likert scale points (%)</text>
  <text x="170" y="25" text-anchor="middle" font-family="sans-serif" font-size="8" fill="#555">(N = 50)</text>

  <!-- x axis: x=130 → 0%, x=310 → 100%, scale=1.8px per % -->
  <line x1="130" y1="32" x2="130" y2="375" stroke="#ddd" stroke-width="0.5"/>
  <line x1="175" y1="32" x2="175" y2="375" stroke="#ddd" stroke-width="0.5"/>
  <line x1="220" y1="32" x2="220" y2="375" stroke="#ddd" stroke-width="0.5"/>
  <line x1="265" y1="32" x2="265" y2="375" stroke="#ddd" stroke-width="0.5"/>
  <line x1="310" y1="32" x2="310" y2="375" stroke="#ddd" stroke-width="0.5"/>
  <text x="130" y="384" text-anchor="middle" font-family="sans-serif" font-size="8" fill="#555">0%</text>
  <text x="175" y="384" text-anchor="middle" font-family="sans-serif" font-size="8" fill="#555">25%</text>
  <text x="220" y="384" text-anchor="middle" font-family="sans-serif" font-size="8" fill="#555">50%</text>
  <text x="265" y="384" text-anchor="middle" font-family="sans-serif" font-size="8" fill="#555">75%</text>
  <text x="310" y="384" text-anchor="middle" font-family="sans-serif" font-size="8" fill="#555">100%</text>
  <text x="220" y="395" text-anchor="middle" font-family="sans-serif" font-size="8" fill="#666">Percentage of respondents</text>

  <!-- rows: y start=34, bar=14, gap=8, row=22 -->
  <!-- scale: 1 count = 2% = 3.6px. So count*3.6 = width in px -->
  <!-- dist [r1,r2,r3,r4,r5] counts out of 50, sorted by mean desc -->
  <!-- colors: r1=#E8F0F8 r2=#85B7EB r3=#378ADD r4=#185FA5 r5=#042C53 -->

  <!-- 1. Project fit [0,2,8,22,18] -->
  <text x="125" y="44" text-anchor="end" font-family="sans-serif" font-size="8" fill="#333">Project fit</text>
  <rect x="130" y="34" width="0"    height="14" fill="#E8F0F8"/>
  <rect x="130" y="34" width="7.2"  height="14" fill="#85B7EB"/>
  <rect x="137.2" y="34" width="28.8" height="14" fill="#378ADD"/>
  <rect x="166"   y="34" width="79.2" height="14" fill="#185FA5"/>
  <rect x="245.2" y="34" width="64.8" height="14" fill="#042C53"/>

  <!-- 2. Learning [0,4,10,20,16] -->
  <text x="125" y="66" text-anchor="end" font-family="sans-serif" font-size="8" fill="#333">Learning interest</text>
  <rect x="130" y="56" width="0"    height="14" fill="#E8F0F8"/>
  <rect x="130" y="56" width="14.4" height="14" fill="#85B7EB"/>
  <rect x="144.4" y="56" width="36"  height="14" fill="#378ADD"/>
  <rect x="180.4" y="56" width="72"  height="14" fill="#185FA5"/>
  <rect x="252.4" y="56" width="57.6" height="14" fill="#042C53"/>

  <!-- 3. Past experience [0,4,14,20,12] -->
  <text x="125" y="88" text-anchor="end" font-family="sans-serif" font-size="8" fill="#333">Past experience</text>
  <rect x="130" y="78" width="0"    height="14" fill="#E8F0F8"/>
  <rect x="130" y="78" width="14.4" height="14" fill="#85B7EB"/>
  <rect x="144.4" y="78" width="50.4" height="14" fill="#378ADD"/>
  <rect x="194.8" y="78" width="72"   height="14" fill="#185FA5"/>
  <rect x="266.8" y="78" width="43.2" height="14" fill="#042C53"/>

  <!-- 4. Dev speed [2,4,16,20,8] -->
  <text x="125" y="110" text-anchor="end" font-family="sans-serif" font-size="8" fill="#333">Dev speed</text>
  <rect x="130"  y="100" width="7.2"  height="14" fill="#E8F0F8"/>
  <rect x="137.2" y="100" width="14.4" height="14" fill="#85B7EB"/>
  <rect x="151.6" y="100" width="57.6" height="14" fill="#378ADD"/>
  <rect x="209.2" y="100" width="72"   height="14" fill="#185FA5"/>
  <rect x="281.2" y="100" width="28.8" height="14" fill="#042C53"/>

  <!-- 5. Employability [2,6,14,18,10] -->
  <text x="125" y="132" text-anchor="end" font-family="sans-serif" font-size="8" fill="#333">Employability</text>
  <rect x="130"  y="122" width="7.2"  height="14" fill="#E8F0F8"/>
  <rect x="137.2" y="122" width="21.6" height="14" fill="#85B7EB"/>
  <rect x="158.8" y="122" width="50.4" height="14" fill="#378ADD"/>
  <rect x="209.2" y="122" width="64.8" height="14" fill="#185FA5"/>
  <rect x="274"   y="122" width="36"   height="14" fill="#042C53"/>

  <!-- 6. Performance [2,4,14,22,8] -->
  <text x="125" y="154" text-anchor="end" font-family="sans-serif" font-size="8" fill="#333">Performance</text>
  <rect x="130"  y="144" width="7.2"  height="14" fill="#E8F0F8"/>
  <rect x="137.2" y="144" width="14.4" height="14" fill="#85B7EB"/>
  <rect x="151.6" y="144" width="50.4" height="14" fill="#378ADD"/>
  <rect x="202"   y="144" width="79.2" height="14" fill="#185FA5"/>
  <rect x="281.2" y="144" width="28.8" height="14" fill="#042C53"/>

  <!-- 7. Documentation [2,6,16,18,8] -->
  <text x="125" y="176" text-anchor="end" font-family="sans-serif" font-size="8" fill="#333">Documentation</text>
  <rect x="130"  y="166" width="7.2"  height="14" fill="#E8F0F8"/>
  <rect x="137.2" y="166" width="21.6" height="14" fill="#85B7EB"/>
  <rect x="158.8" y="166" width="57.6" height="14" fill="#378ADD"/>
  <rect x="216.4" y="166" width="64.8" height="14" fill="#185FA5"/>
  <rect x="281.2" y="166" width="28.8" height="14" fill="#042C53"/>

  <!-- 8. Tool integration [2,6,18,16,8] -->
  <text x="125" y="198" text-anchor="end" font-family="sans-serif" font-size="8" fill="#333">Tool integration</text>
  <rect x="130"  y="188" width="7.2"  height="14" fill="#E8F0F8"/>
  <rect x="137.2" y="188" width="21.6" height="14" fill="#85B7EB"/>
  <rect x="158.8" y="188" width="64.8" height="14" fill="#378ADD"/>
  <rect x="223.6" y="188" width="57.6" height="14" fill="#185FA5"/>
  <rect x="281.2" y="188" width="28.8" height="14" fill="#042C53"/>

  <!-- 9. Prior familiarity [2,8,20,14,6] -->
  <text x="125" y="220" text-anchor="end" font-family="sans-serif" font-size="8" fill="#333">Prior familiarity</text>
  <rect x="130"  y="210" width="7.2"  height="14" fill="#E8F0F8"/>
  <rect x="137.2" y="210" width="28.8" height="14" fill="#85B7EB"/>
  <rect x="166"   y="210" width="72"   height="14" fill="#378ADD"/>
  <rect x="238"   y="210" width="50.4" height="14" fill="#185FA5"/>
  <rect x="288.4" y="210" width="21.6" height="14" fill="#042C53"/>

  <!-- 10. OSS [4,8,18,14,6] -->
  <text x="125" y="242" text-anchor="end" font-family="sans-serif" font-size="8" fill="#333">OSS ecosystem</text>
  <rect x="130"  y="232" width="14.4" height="14" fill="#E8F0F8"/>
  <rect x="144.4" y="232" width="28.8" height="14" fill="#85B7EB"/>
  <rect x="173.2" y="232" width="64.8" height="14" fill="#378ADD"/>
  <rect x="238"   y="232" width="50.4" height="14" fill="#185FA5"/>
  <rect x="288.4" y="232" width="21.6" height="14" fill="#042C53"/>

  <!-- 11. Team familiarity [4,10,22,10,4] -->
  <text x="125" y="264" text-anchor="end" font-family="sans-serif" font-size="8" fill="#333">Team familiarity</text>
  <rect x="130"  y="254" width="14.4" height="14" fill="#E8F0F8"/>
  <rect x="144.4" y="254" width="36"   height="14" fill="#85B7EB"/>
  <rect x="180.4" y="254" width="79.2" height="14" fill="#378ADD"/>
  <rect x="259.6" y="254" width="36"   height="14" fill="#185FA5"/>
  <rect x="295.6" y="254" width="14.4" height="14" fill="#042C53"/>

  <!-- 12. Free-tier [6,12,14,12,6] -->
  <text x="125" y="286" text-anchor="end" font-family="sans-serif" font-size="8" fill="#333">Free-tier access</text>
  <rect x="130"  y="276" width="21.6" height="14" fill="#E8F0F8"/>
  <rect x="151.6" y="276" width="43.2" height="14" fill="#85B7EB"/>
  <rect x="194.8" y="276" width="50.4" height="14" fill="#378ADD"/>
  <rect x="245.2" y="276" width="43.2" height="14" fill="#185FA5"/>
  <rect x="288.4" y="276" width="21.6" height="14" fill="#042C53"/>

  <!-- 13. Instructor rec [8,14,16,8,4] -->
  <text x="125" y="308" text-anchor="end" font-family="sans-serif" font-size="8" fill="#333">Instructor rec.</text>
  <rect x="130"  y="298" width="28.8" height="14" fill="#E8F0F8"/>
  <rect x="158.8" y="298" width="50.4" height="14" fill="#85B7EB"/>
  <rect x="209.2" y="298" width="57.6" height="14" fill="#378ADD"/>
  <rect x="266.8" y="298" width="28.8" height="14" fill="#185FA5"/>
  <rect x="295.6" y="298" width="14.4" height="14" fill="#042C53"/>

  <!-- 14. Peer rec [10,14,14,8,4] -->
  <text x="125" y="330" text-anchor="end" font-family="sans-serif" font-size="8" fill="#333">Peer rec.</text>
  <rect x="130"  y="320" width="36"   height="14" fill="#E8F0F8"/>
  <rect x="166"  y="320" width="50.4" height="14" fill="#85B7EB"/>
  <rect x="216.4" y="320" width="50.4" height="14" fill="#378ADD"/>
  <rect x="266.8" y="320" width="28.8" height="14" fill="#185FA5"/>
  <rect x="295.6" y="320" width="14.4" height="14" fill="#042C53"/>

  <!-- 15. Industry [10,14,16,6,4] -->
  <text x="125" y="352" text-anchor="end" font-family="sans-serif" font-size="8" fill="#333">Industry endors.</text>
  <rect x="130"  y="342" width="36"   height="14" fill="#E8F0F8"/>
  <rect x="166"  y="342" width="50.4" height="14" fill="#85B7EB"/>
  <rect x="216.4" y="342" width="57.6" height="14" fill="#378ADD"/>
  <rect x="274"  y="342" width="21.6" height="14" fill="#185FA5"/>
  <rect x="295.6" y="342" width="14.4" height="14" fill="#042C53"/>

  <!-- legend -->
  <rect x="10"  y="404" width="8" height="8" fill="#E8F0F8" stroke="#aaa" stroke-width="0.5"/>
  <text x="21"  y="412" font-family="sans-serif" font-size="7" fill="#333">1 – Not important</text>
  <rect x="10"  y="416" width="8" height="8" fill="#85B7EB"/>
  <text x="21"  y="424" font-family="sans-serif" font-size="7" fill="#333">2</text>
  <rect x="100" y="404" width="8" height="8" fill="#378ADD"/>
  <text x="111" y="412" font-family="sans-serif" font-size="7" fill="#333">3 – Neutral</text>
  <rect x="100" y="416" width="8" height="8" fill="#185FA5"/>
  <text x="111" y="424" font-family="sans-serif" font-size="7" fill="#333">4</text>
  <rect x="190" y="404" width="8" height="8" fill="#042C53"/>
  <text x="201" y="412" font-family="sans-serif" font-size="7" fill="#333">5 – Very important</text>
</svg>
